<?xml version="1.0" encoding="UTF-8" standalone="no"?>
<!-- Created with Inkscape (http://www.inkscape.org/) -->
<svg xmlns:inkscape="http://www.inkscape.org/namespaces/inkscape" xmlns:rdf="http://www.w3.org/1999/02/22-rdf-syntax-ns#" xmlns="http://www.w3.org/2000/svg" xmlns:cc="http://creativecommons.org/ns#" xmlns:dc="http://purl.org/dc/elements/1.1/" xmlns:sodipodi="http://sodipodi.sourceforge.net/DTD/sodipodi-0.dtd" id="svg2" inkscape:version="0.48.3.1 r9886" viewBox="0 0 542.62 541.67" version="1.1" sodipodi:docname="_svgclean2.svg">
  <sodipodi:namedview id="base" bordercolor="#666666" inkscape:pageshadow="2" inkscape:window-y="0" pagecolor="#ffffff" inkscape:zoom="0.39198859" inkscape:window-width="674" inkscape:window-maximized="0" inkscape:window-x="0" showgrid="false" borderopacity="1.0" inkscape:current-layer="layer1" inkscape:cx="600.84281" inkscape:cy="235.98425" inkscape:window-height="645" inkscape:pageopacity="0.0" inkscape:document-units="px"/>
  <g id="layer1" inkscape:label="Capa 1" inkscape:groupmode="layer" transform="translate(-115.22 -262.17)">
    <g id="g3872" transform="matrix(2,0,0,2,19.514,-525.17)">
      <path id="path3828" style="fill:#00aad4" inkscape:connector-curvature="0" d="m245.02 562.89-56.406-32.667h130.34l-0.73165 9.6429c-1.0248 13.506-6.3627 33.791-12.013 45.651l-4.7837 10.041-56.406-32.667z"/>
      <path id="path3830" style="fill:#ffcc00" inkscape:connector-curvature="0" d="m149.45 467.21c-18.033-31.44-31.426-56.271-30.714-56.943 2.2428-2.1157 22.021-9.9818 30.85-12.27 4.7176-1.2224 13.973-2.6957 20.567-3.2738l11.989-1.0512v64.702c0 35.586-0.16072 64.676-0.35715 64.645-0.19643-0.0313-14.747-25.145-32.334-55.809z"/>
      <path id="path3832" style="fill:#ff00cc" inkscape:connector-curvature="0" d="m104.38 638.55c-12.446-9.14-21.414-18.1-30.525-30.51l-7.1826-9.7815 55.15-31.843c30.332-17.514 55.369-31.624 55.637-31.356 0.35064 0.35064-61.29 108.38-63.014 110.44-0.12685 0.15135-4.6561-2.9745-10.065-6.9463z"/>
      <path id="path3834" style="fill:#5a2ca0" inkscape:connector-curvature="0" d="m185 599.98c0-35.488 0.25148-64.256 0.55884-63.929 0.96141 1.024 63.727 110 63.727 110.65 0 1.1134-13.425 7.3566-22.469 10.449-9.3137 3.1848-30.697 7.3537-37.718 7.3537h-4.0986v-64.524z"/>
      <path id="path3836" style="fill:#44aa00" inkscape:connector-curvature="0" d="m189.29 522.59c0-0.87944 61.611-107.33 62.873-108.63 3.1454-3.2428 32.185 22.707 42.737 38.19 3.9409 5.7823 4.3984 7.2208 2.7695 8.7089-2.1354 1.9508-106.38 62.222-107.62 62.222-0.42 0-0.76363-0.22102-0.76363-0.49115z"/>
      <path id="path3838" style="fill:#44aa00" inkscape:connector-curvature="0" d="m192.14 519.71c0-0.59773 59.981-104.22 60.812-105.06 0.86057-0.86759 10.498 6.1272 19.515 14.164 8.0138 7.1426 25.387 27.616 25.387 29.917 0 1.0401-38.129 23.668-88.853 52.732-14.443 8.2751-16.861 9.458-16.861 8.2478z"/>
      <path id="path3840" style="fill:#44aa00" inkscape:connector-curvature="0" d="m192.14 519.71c0-0.59773 59.981-104.22 60.812-105.06 0.87207-0.87919 10.542 6.1662 19.853 14.465 8.1197 7.237 25.05 27.231 25.05 29.584 0 1.0866-39.096 24.361-83.871 49.929-19.188 10.957-21.843 12.304-21.843 11.084z"/>
      <path id="path3842" style="fill:#d40000" inkscape:connector-curvature="0" d="m47.859 525.32c0-6.0106 3.4072-25.673 5.9592-34.389 2.9658-10.13 10.417-27.857 11.709-27.857 0.67658 0 109.57 62.662 110.78 63.753 0.32738 0.29294-28.44 0.53262-63.929 0.53262-54.949 0-64.524-0.30266-64.524-2.0395z"/>
      <path id="path3844" style="fill:#ff6600" inkscape:connector-curvature="0" d="m123.19 492.55c-28.893-16.71-53.232-31.09-54.088-31.94-2.0761-2.0761 4.9349-12.319 17.241-25.188 10.756-11.248 26.854-23.334 28.587-21.461 1.0372 1.1206 57.02 97.805 61.322 105.91 0.93888 1.7678 1.2023 3.1845 0.58537 3.1482-0.61693-0.0364-24.76-13.742-53.65-30.457z"/>
      <path id="path3846" style="fill:#aad400" inkscape:connector-curvature="0" d="m185 457.95v-64.273l12.086 1.0597c13.056 1.1447 20.113 2.6956 31.909 7.0124 6.5789 2.4076 18.6 7.9578 20.079 9.271 0.51382 0.456-60.687 107.39-62.87 109.85-0.66226 0.74642-1.2041-27.566-1.2041-62.916z"/>
      <path id="path3848" style="fill:#2ca089" inkscape:connector-curvature="0" d="m190.84 526.78c3.144-3.0859 110.52-63.602 111.3-62.726 0.5697 0.64228 3.3357 6.6321 6.1466 13.311 4.9591 11.782 8.6137 27.108 10.135 42.5l0.74108 7.5h-64.456c-35.451 0-64.189-0.26291-63.861-0.58425z"/>
      <path id="path3850" style="fill:#8800aa" inkscape:connector-curvature="0" d="m167.14 663.5c-11.32-1.5364-29.047-6.5963-38.645-11.031-5.8525-2.704-10.641-5.3058-10.641-5.7817 0-0.91548 59.068-103.75 62.359-108.57 1.6292-2.3832 1.9263 7.1476 1.9263 61.786v64.604l-5.3572-0.21404c-2.9464-0.11773-7.2857-0.4758-9.6428-0.79571z"/>
      <path id="path3852" style="fill:#3737c8" inkscape:connector-curvature="0" d="m250.17 641.29c-6.4948-10.235-61-105.72-60.585-106.13 0.76044-0.76044 108.87 61.835 109.36 63.323 0.62725 1.8817-10.827 16.906-19.737 25.888-7.7846 7.8475-23.505 20.135-25.76 20.135-0.68116 0-2.1563-1.4464-3.2781-3.2143z"/>
      <path id="path3854" style="fill:#ff0066" inkscape:connector-curvature="0" d="m60.952 586.09c-2.3574-5.1924-5.3528-12.655-6.6565-16.584-2.5379-7.6479-7.2813-37.489-6.1404-38.63 0.3772-0.37719 29.554-0.51841 64.838-0.3138l64.152 0.372-55.953 32.298-55.953 32.298-4.2862-9.4407z"/>
    </g>
  </g>
  <metadata id="metadata20">
    <rdf:RDF>
      <cc:Work>
        <dc:format>image/svg+xml</dc:format>
        <dc:type rdf:resource="http://purl.org/dc/dcmitype/StillImage"/>
        <cc:license rdf:resource="http://creativecommons.org/licenses/publicdomain/"/>
        <dc:publisher>
          <cc:Agent rdf:about="http://openclipart.org/">
            <dc:title>Openclipart</dc:title>
          </cc:Agent>
        </dc:publisher>
      </cc:Work>
      <cc:License rdf:about="http://creativecommons.org/licenses/publicdomain/">
        <cc:permits rdf:resource="http://creativecommons.org/ns#Reproduction"/>
        <cc:permits rdf:resource="http://creativecommons.org/ns#Distribution"/>
        <cc:permits rdf:resource="http://creativecommons.org/ns#DerivativeWorks"/>
      </cc:License>
    </rdf:RDF>
  </metadata>
</svg>